<?xml version="1.0" encoding="UTF-8" standalone="no"?>
<svg
   width="100"
   height="100"
   version="1.1"
   id="svg1"
   sodipodi:docname="ivy-icon.svg"
   inkscape:version="1.3.2 (091e20ef0f, 2023-11-25)"
   xmlns:inkscape="http://www.inkscape.org/namespaces/inkscape"
   xmlns:sodipodi="http://sodipodi.sourceforge.net/DTD/sodipodi-0.dtd"
   xmlns="http://www.w3.org/2000/svg"
   xmlns:svg="http://www.w3.org/2000/svg">
  <defs
     id="defs1" />
  <sodipodi:namedview
     id="namedview1"
     pagecolor="#ffffff"
     bordercolor="#000000"
     borderopacity="0.25"
     inkscape:showpageshadow="2"
     inkscape:pageopacity="0.0"
     inkscape:pagecheckerboard="0"
     inkscape:deskcolor="#d1d1d1"
     inkscape:zoom="3.7343663"
     inkscape:cx="13.255261"
     inkscape:cy="74.175905"
     inkscape:window-width="1536"
     inkscape:window-height="792"
     inkscape:window-x="0"
     inkscape:window-y="0"
     inkscape:window-maximized="1"
     inkscape:current-layer="svg1" />
  <circle
     cx="50"
     cy="50"
     fill="#34d399"
     r="50"
     id="circle1" />
  <path
     d="M49.732 13.049c-.784 0-1.393.75-1.91 1.242-1.327 1.266-2.609 2.57-3.738 4.018-4.747 6.088-7.718 13.424-7.719 21.193-3.748-2.187-8.733-2.471-12.982-2.066-.971.092-3.594-.097-4.059.965-.337.772.12 2.035.277 2.82a41.26 41.26 0 0 0 2.137 7.256c3.425 8.562 10.132 16.037 19.975 16.041 2.493.001 4.953-.531 7.064-1.91v26.734c0 .787-.27 2.586.955 2.586s.955-1.798.955-2.586V62.607c2.597 1.697 5.752 2.136 8.785 1.773 2.194-.262 4.276-.707 6.301-1.641 5.891-2.718 9.618-8.425 11.953-14.262.94-2.349 1.615-4.782 2.137-7.256.165-.779.612-2.055.277-2.82-.464-1.062-3.085-.874-4.057-.967-4.25-.404-9.233-.121-12.984 2.068 0-7.769-2.972-15.105-7.719-21.195-1.129-1.448-2.413-2.752-3.74-4.018-.516-.492-1.124-1.242-1.908-1.242zm0 2.434c.606 0 1.143.721 1.529 1.105a32.14 32.14 0 0 1 3.125 3.629c3.028 4.07 5.304 8.751 6.268 13.748.356 1.843.537 3.665.537 5.539 0 .757-.215 1.969.332 2.586.317.358.748.364 1.141.135 1.031-.6 1.754-1.402 2.918-1.826 4.175-1.522 8.289-.907 12.604-.895-.099 2.167-.907 4.444-1.592 6.49-2.295 6.861-6.625 13.601-13.875 15.846-2.874.89-6.109 1.13-8.975.129-.899-.314-2.15-.739-2.75-1.523-.651-.852-.324-2.735-.305-3.756.008-.413-.001-.838.305-1.154.734-.757 2.186-1.073 3.133-1.494.744-.331 1.63-.97 2.482-.865 1.598.195 2.701 2.027 4.201 2.529.613.205 1.375-.193 1.111-.926-.228-.632-.979-1.048-1.494-1.418-.623-.449-1.228-.854-1.717-1.447 1.627-.553 3.492-1.274 4.961-2.17.641-.391 1.256-1.407.182-1.762-.603-.199-1.375.297-1.898.545-1.291.613-2.635 1.277-4.01 1.67.009-1.052.859-3.704-.082-4.434-.683-.529-1.257.187-1.418.809-.383 1.475-.535 3.25-.6 4.771-1.79.511-3.367 1.588-5.156 2.1V44.85c0-1-.324-2.7.195-3.588.651-1.114 2.579-1.699 3.613-2.416.486-.337 1.117-.933.623-1.549-.365-.453-.926-.312-1.379-.1-1.059.498-1.993 1.237-3.055 1.734v-6.684c-.004-.667.014-1.936-.955-1.936s-.951 1.269-.955 1.936v6.684c-1.062-.497-1.996-1.236-3.055-1.734-.453-.213-1.013-.354-1.377.1-.494.615.135 1.211.621 1.549 1.034.718 2.962 1.302 3.613 2.416.519.888.197 2.588.197 3.588v8.59c-1.79-.511-3.367-1.588-5.156-2.1-.03-1.484-.176-3.345-.584-4.771-.176-.617-.75-1.337-1.434-.807-.941.73-.091 3.38-.082 4.432-1.447-.413-2.83-1.144-4.201-1.762-.529-.238-1.286-.655-1.863-.324-.809.464-.218 1.291.344 1.627 1.485.888 3.322 1.623 4.957 2.18-.488.591-1.093 1.001-1.719 1.445-.496.351-1.226.704-1.52 1.262-.337.639.264 1.337.947 1.189 1.641-.354 2.693-2.427 4.391-2.635 1.314-.161 3.212 1.167 4.393 1.684.444.194 1.043.39 1.332.805.428.613.195 1.841.195 2.553 0 .705.153 1.631-.305 2.229-.6.784-1.851 1.209-2.75 1.523-2.86.999-6.109.758-8.975-.129-7.249-2.244-11.579-8.983-13.875-15.846-.69-2.063-1.497-4.301-1.592-6.49v-.002c4.243-.012 8.515-.719 12.604.881 1.172.458 1.995 1.47 3.086 1.93a.823.823 0 0 0 .973-.223c.547-.616.332-1.828.332-2.586a29.01 29.01 0 0 1 .537-5.539c.963-4.994 3.241-9.681 6.268-13.748a32.66 32.66 0 0 1 3.125-3.629c.385-.384.921-1.105 1.527-1.105z"
     fill="#fff"
     id="path1"
     style="stroke-width:1;stroke-dasharray:none;stroke:#ffffff;stroke-opacity:1" />
</svg>
